<svg width="117" height="117" viewBox="0 0 117 117" fill="none" xmlns="http://www.w3.org/2000/svg">
<path d="M58.5146 0H58.4854C26.2299 0 0 26.2372 0 58.5C0 71.2969 4.12425 83.1578 11.1369 92.7883L3.84638 114.521L26.3323 107.333C35.5826 113.461 46.6172 117 58.5146 117C90.7701 117 117 90.7554 117 58.5C117 26.2446 90.7701 0 58.5146 0Z" fill="#1EBE71"/>
<path d="M92.5543 82.6093C91.143 86.5947 85.5416 89.8999 81.0737 90.8652C78.017 91.516 74.0244 92.0352 60.584 86.463C43.3923 79.3407 32.3212 61.8711 31.4584 60.7377C30.632 59.6042 24.5115 51.4873 24.5115 43.0926C24.5115 34.6978 28.7747 30.6102 30.4931 28.8552C31.9044 27.4146 34.2371 26.7565 36.4747 26.7565C37.1987 26.7565 37.8495 26.793 38.4345 26.8223C40.1529 26.8954 41.0158 26.9978 42.1492 29.7107C43.5605 33.111 46.9974 41.5058 47.4069 42.3687C47.8237 43.2315 48.2405 44.4015 47.6555 45.535C47.1071 46.705 46.6245 47.2242 45.7616 48.2187C44.8987 49.2132 44.0797 49.9737 43.2168 51.0413C42.4271 51.97 41.535 52.9645 42.5295 54.6829C43.524 56.3648 46.9608 61.9735 52.0211 66.478C58.5512 72.2914 63.8454 74.1488 65.7393 74.9385C67.1507 75.5235 68.8325 75.3846 69.8636 74.2877C71.1725 72.8764 72.7886 70.5364 74.4339 68.233C75.6039 66.5803 77.081 66.3756 78.6313 66.9606C80.2108 67.509 88.569 71.6406 90.2874 72.4961C92.0059 73.359 93.1393 73.7685 93.5561 74.4925C93.9656 75.2164 93.9656 78.6167 92.5543 82.6093Z" fill="#FAFAFA"/>
</svg>

