<svg width="25" height="25" viewBox="0 0 25 25" fill="none" xmlns="http://www.w3.org/2000/svg">
<g clip-path="url(#clip0_1856_120)">
<path d="M14.7094 11.0716C15.9299 12.292 15.9299 14.2707 14.7094 15.4911C13.489 16.7115 11.5103 16.7115 10.2899 15.4911C9.06947 14.2707 9.06947 12.292 10.2899 11.0716C11.5103 9.85114 13.489 9.85114 14.7094 11.0716Z" fill="#BEBEBE"/>
<path d="M21.8749 4.68737H19.7157L18.1524 1.56226H6.84608L5.28426 4.6889L3.12813 4.69274C1.40919 4.69581 0.00987809 6.0966 0.00839381 7.81631L0 20.3121C0 22.0356 1.40156 23.438 3.12511 23.438H21.8749C23.5985 23.438 25.0001 22.0364 25.0001 20.3129V7.81242C25 6.08893 23.5984 4.68737 21.8749 4.68737ZM12.4996 19.5316C9.05329 19.5316 6.2494 16.7277 6.2494 13.2814C6.2494 9.83502 9.05329 7.03113 12.4996 7.03113C15.9459 7.03113 18.7498 9.83502 18.7498 13.2814C18.7498 16.7277 15.9459 19.5316 12.4996 19.5316Z" fill="#BEBEBE"/>
</g>
<defs>
<clipPath id="clip0_1856_120">
<rect width="25" height="25" fill="white"/>
</clipPath>
</defs>
</svg>

