<svg width="23" height="23" viewBox="0 0 23 23" fill="none" xmlns="http://www.w3.org/2000/svg">
<g clip-path="url(#clip0_1856_181)">
<path d="M18.86 11.8788C18.86 11.4188 18.5083 11.0671 18.0483 11.0671C17.5883 11.0671 17.2365 11.4188 17.2365 11.8788C17.2365 15.0447 14.6659 17.6153 11.5 17.6153C8.33413 17.6153 5.76354 15.0447 5.76354 11.8788C5.76354 11.4188 5.41178 11.0671 4.95178 11.0671C4.49178 11.0671 4.14001 11.4188 4.14001 11.8788C4.14001 15.64 6.95413 18.8059 10.6883 19.2118V21.3765H7.73884C7.27884 21.3765 6.92707 21.7283 6.92707 22.1883C6.92707 22.6483 7.27884 23 7.73884 23H15.2612C15.7212 23 16.073 22.6483 16.073 22.1883C16.073 21.7283 15.7212 21.3765 15.2612 21.3765H12.3118V19.2118C16.0459 18.8059 18.86 15.64 18.86 11.8788Z" fill="#808080"/>
<path d="M11.5 0C9.01061 0 6.9812 2.02941 6.9812 4.51882V11.8518C6.9812 14.3682 9.01061 16.3706 11.5 16.3976C13.9894 16.3976 16.0188 14.3682 16.0188 11.8788V4.51882C16.0188 2.02941 13.9894 0 11.5 0Z" fill="#808080"/>
</g>
<defs>
<clipPath id="clip0_1856_181">
<rect width="23" height="23" fill="white"/>
</clipPath>
</defs>
</svg>

